<?xml version="1.0" encoding="UTF-8" standalone="no"?>
<!-- Created with Inkscape (http://www.inkscape.org/) -->
<svg
   xmlns:dc="http://purl.org/dc/elements/1.1/"
   xmlns:cc="http://creativecommons.org/ns#"
   xmlns:rdf="http://www.w3.org/1999/02/22-rdf-syntax-ns#"
   xmlns:svg="http://www.w3.org/2000/svg"
   xmlns="http://www.w3.org/2000/svg"
   xmlns:sodipodi="http://sodipodi.sourceforge.net/DTD/sodipodi-0.dtd"
   xmlns:inkscape="http://www.inkscape.org/namespaces/inkscape"
   width="744.09448819"
   height="1052.3622047"
   id="svg2"
   sodipodi:version="0.32"
   inkscape:version="0.46"
   sodipodi:docname="eggs_in_basket_x_thick.svg"
   inkscape:output_extension="org.inkscape.output.svg.inkscape">
  <defs
     id="defs4">
    <inkscape:perspective
       sodipodi:type="inkscape:persp3d"
       inkscape:vp_x="0 : 526.18109 : 1"
       inkscape:vp_y="0 : 1000 : 0"
       inkscape:vp_z="744.09448 : 526.18109 : 1"
       inkscape:persp3d-origin="372.04724 : 350.78739 : 1"
       id="perspective10" />
  </defs>
  <sodipodi:namedview
     id="base"
     pagecolor="#ffffff"
     bordercolor="#666666"
     borderopacity="1.0"
     gridtolerance="10000"
     guidetolerance="10"
     objecttolerance="10"
     inkscape:pageopacity="0.0"
     inkscape:pageshadow="2"
     inkscape:zoom="0.98994949"
     inkscape:cx="198.62486"
     inkscape:cy="772.39133"
     inkscape:document-units="px"
     inkscape:current-layer="layer1"
     showgrid="false"
     inkscape:window-width="1280"
     inkscape:window-height="750"
     inkscape:window-x="0"
     inkscape:window-y="0" />
  <metadata
     id="metadata7">
    <rdf:RDF>
      <cc:Work
         rdf:about="">
        <dc:format>image/svg+xml</dc:format>
        <dc:type
           rdf:resource="http://purl.org/dc/dcmitype/StillImage" />
      </cc:Work>
    </rdf:RDF>
  </metadata>
  <g
     inkscape:label="Layer 1"
     inkscape:groupmode="layer"
     id="layer1">
    <path
       style="fill:#e90a1b;fill-opacity:0.70588235;fill-rule:evenodd;stroke:#000000;stroke-width:1px;stroke-linecap:butt;stroke-linejoin:miter;stroke-opacity:1"
       d="M 372.4375,118.49554 C 336.16321,118.49554 306.71874,168.42447 306.71875,229.93304 C 306.71875,234.93962 306.99709,239.81944 307.375,244.65179 C 307.83036,250.47447 308.50374,256.17949 309.46875,261.68304 C 309.72683,262.60942 309.91612,263.55542 310.21875,264.46429 C 310.85916,266.38758 311.6057,268.28323 312.4375,270.12054 C 313.2693,271.95785 314.2066,273.75454 315.21875,275.49554 C 316.2309,277.23654 317.31855,278.92368 318.5,280.55804 C 319.68145,282.1924 320.94154,283.7594 322.28125,285.27679 C 323.62096,286.79418 325.04432,288.26169 326.53125,289.65179 C 328.01818,291.04189 329.5644,292.36806 331.1875,293.62054 C 332.8106,294.87302 334.50177,296.04725 336.25,297.15179 C 337.99823,298.25633 339.82518,299.26803 341.6875,300.21429 C 343.54982,301.16055 345.44088,302.03038 347.40625,302.80804 C 349.37162,303.5857 351.41137,304.2718 353.46875,304.87054 C 355.52613,305.46928 357.61166,305.9923 359.75,306.40179 C 361.88834,306.81128 364.07299,307.12938 366.28125,307.33929 C 368.48951,307.5492 370.73286,307.65179 373,307.65179 C 375.26714,307.65179 377.51049,307.5492 379.71875,307.33929 C 381.92701,307.12938 384.08041,306.81128 386.21875,306.40179 C 388.35709,305.9923 390.47387,305.46928 392.53125,304.87054 C 394.58863,304.2718 396.59713,303.5857 398.5625,302.80804 C 400.52787,302.03038 402.45018,301.16055 404.3125,300.21429 C 406.17482,299.26803 407.97052,298.25633 409.71875,297.15179 C 411.46698,296.04725 413.15815,294.87302 414.78125,293.62054 C 416.40435,292.36806 417.98182,291.04189 419.46875,289.65179 C 420.95568,288.26169 422.34779,286.79418 423.6875,285.27679 C 425.02721,283.7594 426.2873,282.1924 427.46875,280.55804 C 428.6502,278.92368 429.7691,277.23654 430.78125,275.49554 C 431.7934,273.75454 432.69945,271.95785 433.53125,270.12054 C 433.63691,269.88715 433.70985,269.63664 433.8125,269.40179 C 436.07455,259.30071 437.50426,248.50175 437.9375,237.24554 C 438.03108,234.81414 438.15625,232.40434 438.15625,229.93304 C 438.15625,168.42447 408.71179,118.49554 372.4375,118.49554 z"
       id="path2400"
       inkscape:export-filename="/home/cefn/Documents/code/allyourx/logos/eggs_in_basket_x_thick_70px.png"
       inkscape:export-xdpi="16.195374"
       inkscape:export-ydpi="16.195374" />
    <path
       style="fill:#a000f4;fill-opacity:0.70588235;fill-rule:evenodd;stroke:#000000;stroke-width:1px;stroke-linecap:butt;stroke-linejoin:miter;stroke-opacity:1"
       d="M 509.03565,155.89146 C 479.18138,135.28693 426.58751,159.65411 391.64941,210.27657 C 388.80557,214.39706 386.26281,218.57132 383.82896,222.76307 C 380.89633,227.81389 378.20996,232.89169 375.87805,237.96934 C 375.56426,238.87835 375.1827,239.76445 374.91551,240.68437 C 374.35011,242.63102 373.88776,244.61523 373.52871,246.59984 C 373.16966,248.58445 372.92052,250.59556 372.76461,252.60334 C 372.60871,254.61114 372.54553,256.61748 372.58952,258.63368 C 372.63353,260.64987 372.78051,262.65528 373.02121,264.6651 C 373.2619,266.67492 373.59977,268.6912 374.03393,270.67988 C 374.46809,272.66855 374.98736,274.6383 375.61176,276.59106 C 376.23617,278.54382 376.96103,280.47085 377.77245,282.37293 C 378.58387,284.27501 379.51281,286.1454 380.50804,287.98202 C 381.50326,289.81864 382.56554,291.60869 383.74134,293.36508 C 384.91714,295.12148 386.20617,296.84477 387.55933,298.50617 C 388.91249,300.16758 390.33183,301.78265 391.85911,303.33429 C 393.3864,304.88592 395.00371,306.38865 396.7019,307.81575 C 398.4001,309.24284 400.18814,310.60155 402.05403,311.88933 C 403.91992,313.17711 405.8245,314.36694 407.76116,315.44852 C 409.69783,316.5301 411.65079,317.49147 413.64328,318.36907 C 415.63576,319.24667 417.67499,320.0186 419.70834,320.69446 C 421.74169,321.37032 423.78444,321.94652 425.84369,322.42286 C 427.90294,322.89921 429.97911,323.27524 432.04932,323.55428 C 434.11954,323.83333 436.17209,324.02069 438.23831,324.10467 C 440.30453,324.18864 442.36338,324.18285 444.41064,324.07399 C 446.45791,323.96513 448.50948,323.76972 450.52286,323.47025 C 452.53622,323.17079 454.51553,322.75375 456.48003,322.2659 C 458.44454,321.77804 460.3717,321.20414 462.2724,320.53013 C 464.17311,319.85611 466.05231,319.10313 467.87424,318.24517 C 469.69618,317.38723 471.46243,316.42318 473.19064,315.38353 C 473.41017,315.25146 473.61249,315.08672 473.83037,314.95175 C 481.42969,307.92329 488.74039,299.8477 495.49071,290.82976 C 496.94881,288.88184 498.42064,286.96964 499.82439,284.93572 C 534.7625,234.31327 538.88992,176.49598 509.03565,155.89146 z"
       id="path3175"
       inkscape:export-filename="/home/cefn/Documents/code/allyourx/logos/eggs_in_basket_x_thick_70px.png"
       inkscape:export-xdpi="16.195374"
       inkscape:export-ydpi="16.195374" />
    <path
       style="fill:none;fill-rule:evenodd;stroke:#000000;stroke-width:12;stroke-linecap:round;stroke-linejoin:miter;stroke-miterlimit:4;stroke-dasharray:none;stroke-opacity:1"
       d="M 186.50003,227.71935 C 290.03221,391.9973 437.83332,393.86411 563.49997,229.58615"
       id="path3179"
       sodipodi:nodetypes="cc"
       inkscape:export-filename="/home/cefn/Documents/code/allyourx/logos/eggs_in_basket_x_thick_70px.png"
       inkscape:export-xdpi="16.195374"
       inkscape:export-ydpi="16.195374" />
    <path
       style="fill:#f8f800;fill-opacity:0.70588237;fill-rule:evenodd;stroke:#000000;stroke-width:1px;stroke-linecap:butt;stroke-linejoin:miter;stroke-opacity:1"
       d="M 234.03007,155.8883 C 263.88434,135.28377 316.47821,159.65095 351.41631,210.27341 C 354.26015,214.3939 356.80291,218.56816 359.23676,222.75991 C 362.16939,227.81073 364.85576,232.88853 367.18767,237.96618 C 367.50146,238.87519 367.88302,239.76129 368.15021,240.68121 C 368.71561,242.62786 369.17796,244.61207 369.53701,246.59668 C 369.89606,248.58129 370.1452,250.5924 370.30111,252.60018 C 370.45701,254.60798 370.52019,256.61432 370.4762,258.63052 C 370.43219,260.64671 370.28521,262.65212 370.04451,264.66194 C 369.80382,266.67176 369.46595,268.68804 369.03179,270.67672 C 368.59763,272.66539 368.07836,274.63514 367.45396,276.5879 C 366.82955,278.54066 366.10469,280.46769 365.29327,282.36977 C 364.48185,284.27185 363.55291,286.14224 362.55768,287.97886 C 361.56246,289.81548 360.50018,291.60553 359.32438,293.36192 C 358.14858,295.11832 356.85955,296.84161 355.50639,298.50301 C 354.15323,300.16442 352.73389,301.77949 351.20661,303.33113 C 349.67932,304.88276 348.06201,306.38549 346.36382,307.81259 C 344.66562,309.23968 342.87758,310.59839 341.01169,311.88617 C 339.1458,313.17395 337.24122,314.36378 335.30456,315.44536 C 333.36789,316.52694 331.41493,317.48831 329.42244,318.36591 C 327.42996,319.24351 325.39073,320.01544 323.35738,320.6913 C 321.32403,321.36716 319.28128,321.94336 317.22203,322.4197 C 315.16278,322.89605 313.08661,323.27208 311.0164,323.55112 C 308.94618,323.83017 306.89363,324.01753 304.82741,324.10151 C 302.76119,324.18548 300.70234,324.17969 298.65508,324.07083 C 296.60781,323.96197 294.55624,323.76656 292.54286,323.46709 C 290.5295,323.16763 288.55019,322.75059 286.58569,322.26274 C 284.62118,321.77488 282.69402,321.20098 280.79332,320.52697 C 278.89261,319.85295 277.01341,319.09997 275.19148,318.24201 C 273.36954,317.38407 271.60329,316.42002 269.87508,315.38037 C 269.65555,315.2483 269.45323,315.08356 269.23535,314.94859 C 261.63603,307.92013 254.32533,299.84454 247.57501,290.8266 C 246.11691,288.87868 244.64508,286.96648 243.24133,284.93256 C 208.30322,234.31011 204.1758,176.49282 234.03007,155.8883 z"
       id="path3181"
       inkscape:export-filename="/home/cefn/Documents/code/allyourx/logos/eggs_in_basket_x_thick_70px.png"
       inkscape:export-xdpi="16.195374"
       inkscape:export-ydpi="16.195374" />
    <path
       style="fill:none;fill-opacity:0.70588235;fill-rule:evenodd;stroke:#000000;stroke-width:12;stroke-linecap:butt;stroke-linejoin:miter;stroke-miterlimit:4;stroke-dasharray:none;stroke-opacity:1"
       d="M 310.85066,171.62412 C 324.13134,181.52814 336.95425,194.76747 347.95835,210.71153 C 350.69685,214.67937 353.14543,218.69903 355.48913,222.73552 C 358.31313,227.59924 360.89999,232.48895 363.14554,237.37852 C 363.44769,238.25386 363.81511,239.10715 364.07242,239.99299 C 364.61686,241.86752 365.06209,243.77825 365.40785,245.68934 C 365.75359,247.60045 365.9935,249.53706 366.14365,251.47045 C 366.29376,253.4039 366.3546,255.33592 366.31225,257.27743 C 366.26987,259.21894 366.12832,261.15007 365.89655,263.08545 C 365.66477,265.02082 365.33942,266.96241 364.92134,268.87743 C 364.50326,270.79244 364.00323,272.68923 363.40194,274.56966 C 362.80067,276.45008 362.10266,278.30574 361.3213,280.13736 C 360.53994,281.96897 359.6454,283.77009 358.68702,285.53868 C 357.72868,287.30728 356.70574,289.03102 355.5735,290.72236 C 354.44126,292.41367 353.19998,294.07315 351.89694,295.67301 C 350.59389,297.27287 349.22713,298.82812 347.75642,300.32228 C 346.28571,301.81643 344.7283,303.26352 343.09301,304.63775 C 341.45771,306.01198 339.7359,307.32036 337.93913,308.56045 C 336.14236,309.80053 334.30832,310.94627 332.44339,311.98779 C 330.57847,313.02931 328.69785,313.95508 326.77916,314.80016 C 324.86048,315.64527 322.8968,316.3886 320.93876,317.03942 C 318.98072,317.69023 317.01364,318.24511 315.03066,318.7038 C 313.64529,319.02426 312.25198,319.29758 310.85821,319.52483"
       id="path2411"
       inkscape:export-filename="/home/cefn/Documents/code/allyourx/logos/eggs_in_basket_x_thick_70px.png"
       inkscape:export-xdpi="16.195374"
       inkscape:export-ydpi="16.195374" />
    <path
       style="fill:none;fill-opacity:0.70588235;fill-rule:evenodd;stroke:#000000;stroke-width:12;stroke-linecap:butt;stroke-linejoin:miter;stroke-miterlimit:4;stroke-dasharray:none;stroke-opacity:1"
       d="M 431.80139,171.75627 C 418.52074,181.66029 405.69781,194.89962 394.6937,210.84366 C 391.9552,214.81152 389.50663,218.83118 387.16294,222.86765 C 384.33893,227.73138 381.75207,232.62111 379.50654,237.51067 C 379.20437,238.38601 378.83694,239.23929 378.57965,240.12512 C 378.03519,241.99968 377.58997,243.91039 377.24422,245.82148 C 376.89846,247.7326 376.65855,249.6692 376.50843,251.60261 C 376.35829,253.53603 376.29745,255.46807 376.33982,257.40957 C 376.38219,259.3511 376.52373,261.28222 376.7555,263.21759 C 376.98729,265.15297 377.31265,267.09456 377.73071,269.00958 C 378.14881,270.92459 378.64883,272.82138 379.25011,274.70181 C 379.85138,276.58222 380.54941,278.43788 381.33075,280.26951 C 382.11213,282.10112 383.00665,283.90225 383.96503,285.67082 C 384.92338,287.43942 385.94632,289.16317 387.07856,290.85448 C 388.21081,292.54582 389.45209,294.2053 390.75513,295.80515 C 392.05816,297.40501 393.42493,298.96028 394.89564,300.45444 C 396.36636,301.94858 397.92377,303.39565 399.55906,304.7699 C 401.19434,306.14413 402.91615,307.45251 404.71294,308.69258 C 406.50971,309.93268 408.34374,311.07843 410.20865,312.11994 C 412.0736,313.16145 413.95422,314.08722 415.8729,314.93232 C 417.79158,315.77741 419.75528,316.52074 421.71329,317.17157 C 423.67134,317.82239 425.63844,318.37724 427.6214,318.83594 C 429.00677,319.15641 430.40009,319.42972 431.79386,319.65699"
       id="path3191"
       inkscape:export-filename="/home/cefn/Documents/code/allyourx/logos/eggs_in_basket_x_thick_70px.png"
       inkscape:export-xdpi="16.195374"
       inkscape:export-ydpi="16.195374" />
  </g>
</svg>
