<?xml version="1.0" encoding="UTF-8" standalone="no"?>
<!-- Created with Inkscape (http://www.inkscape.org/) -->
<svg
   xmlns:dc="http://purl.org/dc/elements/1.1/"
   xmlns:cc="http://creativecommons.org/ns#"
   xmlns:rdf="http://www.w3.org/1999/02/22-rdf-syntax-ns#"
   xmlns:svg="http://www.w3.org/2000/svg"
   xmlns="http://www.w3.org/2000/svg"
   xmlns:sodipodi="http://sodipodi.sourceforge.net/DTD/sodipodi-0.dtd"
   xmlns:inkscape="http://www.inkscape.org/namespaces/inkscape"
   width="744.09448819"
   height="1052.3622047"
   id="svg2"
   sodipodi:version="0.32"
   inkscape:version="0.46"
   sodipodi:docname="eggs_in_basket2.svg"
   inkscape:output_extension="org.inkscape.output.svg.inkscape">
  <defs
     id="defs4">
    <inkscape:perspective
       sodipodi:type="inkscape:persp3d"
       inkscape:vp_x="0 : 526.18109 : 1"
       inkscape:vp_y="0 : 1000 : 0"
       inkscape:vp_z="744.09448 : 526.18109 : 1"
       inkscape:persp3d-origin="372.04724 : 350.78739 : 1"
       id="perspective10" />
  </defs>
  <sodipodi:namedview
     id="base"
     pagecolor="#ffffff"
     bordercolor="#666666"
     borderopacity="1.0"
     gridtolerance="10000"
     guidetolerance="10"
     objecttolerance="10"
     inkscape:pageopacity="0.0"
     inkscape:pageshadow="2"
     inkscape:zoom="1.4"
     inkscape:cx="264.21065"
     inkscape:cy="821.01913"
     inkscape:document-units="px"
     inkscape:current-layer="layer1"
     showgrid="false"
     inkscape:window-width="1280"
     inkscape:window-height="750"
     inkscape:window-x="0"
     inkscape:window-y="0" />
  <metadata
     id="metadata7">
    <rdf:RDF>
      <cc:Work
         rdf:about="">
        <dc:format>image/svg+xml</dc:format>
        <dc:type
           rdf:resource="http://purl.org/dc/dcmitype/StillImage" />
      </cc:Work>
    </rdf:RDF>
  </metadata>
  <g
     inkscape:label="Layer 1"
     inkscape:groupmode="layer"
     id="layer1">
    <path
       style="fill:#e90a1b;fill-opacity:0.70588235;fill-rule:evenodd;stroke:#000000;stroke-width:1px;stroke-linecap:butt;stroke-linejoin:miter;stroke-opacity:1"
       d="M 372.4375,114.49554 C 336.16321,114.49554 306.71874,164.42447 306.71875,225.93304 C 306.71875,230.93962 306.99709,235.81944 307.375,240.65179 C 307.83036,246.47447 308.50374,252.17949 309.46875,257.68304 C 309.72683,258.60942 309.91612,259.55542 310.21875,260.46429 C 310.85916,262.38758 311.6057,264.28323 312.4375,266.12054 C 313.2693,267.95785 314.2066,269.75454 315.21875,271.49554 C 316.2309,273.23654 317.31855,274.92368 318.5,276.55804 C 319.68145,278.1924 320.94154,279.7594 322.28125,281.27679 C 323.62096,282.79418 325.04432,284.26169 326.53125,285.65179 C 328.01818,287.04189 329.5644,288.36806 331.1875,289.62054 C 332.8106,290.87302 334.50177,292.04725 336.25,293.15179 C 337.99823,294.25633 339.82518,295.26803 341.6875,296.21429 C 343.54982,297.16055 345.44088,298.03038 347.40625,298.80804 C 349.37162,299.5857 351.41137,300.2718 353.46875,300.87054 C 355.52613,301.46928 357.61166,301.9923 359.75,302.40179 C 361.88834,302.81128 364.07299,303.12938 366.28125,303.33929 C 368.48951,303.5492 370.73286,303.65179 373,303.65179 C 375.26714,303.65179 377.51049,303.5492 379.71875,303.33929 C 381.92701,303.12938 384.08041,302.81128 386.21875,302.40179 C 388.35709,301.9923 390.47387,301.46928 392.53125,300.87054 C 394.58863,300.2718 396.59713,299.5857 398.5625,298.80804 C 400.52787,298.03038 402.45018,297.16055 404.3125,296.21429 C 406.17482,295.26803 407.97052,294.25633 409.71875,293.15179 C 411.46698,292.04725 413.15815,290.87302 414.78125,289.62054 C 416.40435,288.36806 417.98182,287.04189 419.46875,285.65179 C 420.95568,284.26169 422.34779,282.79418 423.6875,281.27679 C 425.02721,279.7594 426.2873,278.1924 427.46875,276.55804 C 428.6502,274.92368 429.7691,273.23654 430.78125,271.49554 C 431.7934,269.75454 432.69945,267.95785 433.53125,266.12054 C 433.63691,265.88715 433.70985,265.63664 433.8125,265.40179 C 436.07455,255.30071 437.50426,244.50175 437.9375,233.24554 C 438.03108,230.81414 438.15625,228.40434 438.15625,225.93304 C 438.15625,164.42447 408.71179,114.49554 372.4375,114.49554 z"
       id="path2400" />
    <path
       style="fill:#a000f4;fill-opacity:0.70588237;fill-rule:evenodd;stroke:#000000;stroke-width:1px;stroke-linecap:butt;stroke-linejoin:miter;stroke-opacity:1"
       d="M 507.03565,155.89146 C 477.18138,135.28693 424.58751,159.65411 389.64941,210.27657 C 386.80557,214.39706 384.26281,218.57132 381.82896,222.76307 C 378.89633,227.81389 376.20996,232.89169 373.87805,237.96934 C 373.56426,238.87835 373.1827,239.76445 372.91551,240.68437 C 372.35011,242.63102 371.88776,244.61523 371.52871,246.59984 C 371.16966,248.58445 370.92052,250.59556 370.76461,252.60334 C 370.60871,254.61114 370.54553,256.61748 370.58952,258.63368 C 370.63353,260.64987 370.78051,262.65528 371.02121,264.6651 C 371.2619,266.67492 371.59977,268.6912 372.03393,270.67988 C 372.46809,272.66855 372.98736,274.6383 373.61176,276.59106 C 374.23617,278.54382 374.96103,280.47085 375.77245,282.37293 C 376.58387,284.27501 377.51281,286.1454 378.50804,287.98202 C 379.50326,289.81864 380.56554,291.60869 381.74134,293.36508 C 382.91714,295.12148 384.20617,296.84477 385.55933,298.50617 C 386.91249,300.16758 388.33183,301.78265 389.85911,303.33429 C 391.3864,304.88592 393.00371,306.38865 394.7019,307.81575 C 396.4001,309.24284 398.18814,310.60155 400.05403,311.88933 C 401.91992,313.17711 403.8245,314.36694 405.76116,315.44852 C 407.69783,316.5301 409.65079,317.49147 411.64328,318.36907 C 413.63576,319.24667 415.67499,320.0186 417.70834,320.69446 C 419.74169,321.37032 421.78444,321.94652 423.84369,322.42286 C 425.90294,322.89921 427.97911,323.27524 430.04932,323.55428 C 432.11954,323.83333 434.17209,324.02069 436.23831,324.10467 C 438.30453,324.18864 440.36338,324.18285 442.41064,324.07399 C 444.45791,323.96513 446.50948,323.76972 448.52286,323.47025 C 450.53622,323.17079 452.51553,322.75375 454.48003,322.2659 C 456.44454,321.77804 458.3717,321.20414 460.2724,320.53013 C 462.17311,319.85611 464.05231,319.10313 465.87424,318.24517 C 467.69618,317.38723 469.46243,316.42318 471.19064,315.38353 C 471.41017,315.25146 471.61249,315.08672 471.83037,314.95175 C 479.42969,307.92329 486.74039,299.8477 493.49071,290.82976 C 494.94881,288.88184 496.42064,286.96964 497.82439,284.93572 C 532.7625,234.31327 536.88992,176.49598 507.03565,155.89146 z"
       id="path3175" />
    <path
       style="fill:none;fill-rule:evenodd;stroke:#000000;stroke-width:6;stroke-linecap:round;stroke-linejoin:miter;stroke-miterlimit:4;stroke-dasharray:none;stroke-opacity:1"
       d="M 186.50003,227.71935 C 290.03221,391.9973 437.83332,393.86411 563.49997,229.58615"
       id="path3179"
       sodipodi:nodetypes="cc" />
    <path
       style="fill:#f8f800;fill-opacity:0.70588237;fill-rule:evenodd;stroke:#000000;stroke-width:1px;stroke-linecap:butt;stroke-linejoin:miter;stroke-opacity:1"
       d="M 234.03007,155.8883 C 263.88434,135.28377 316.47821,159.65095 351.41631,210.27341 C 354.26015,214.3939 356.80291,218.56816 359.23676,222.75991 C 362.16939,227.81073 364.85576,232.88853 367.18767,237.96618 C 367.50146,238.87519 367.88302,239.76129 368.15021,240.68121 C 368.71561,242.62786 369.17796,244.61207 369.53701,246.59668 C 369.89606,248.58129 370.1452,250.5924 370.30111,252.60018 C 370.45701,254.60798 370.52019,256.61432 370.4762,258.63052 C 370.43219,260.64671 370.28521,262.65212 370.04451,264.66194 C 369.80382,266.67176 369.46595,268.68804 369.03179,270.67672 C 368.59763,272.66539 368.07836,274.63514 367.45396,276.5879 C 366.82955,278.54066 366.10469,280.46769 365.29327,282.36977 C 364.48185,284.27185 363.55291,286.14224 362.55768,287.97886 C 361.56246,289.81548 360.50018,291.60553 359.32438,293.36192 C 358.14858,295.11832 356.85955,296.84161 355.50639,298.50301 C 354.15323,300.16442 352.73389,301.77949 351.20661,303.33113 C 349.67932,304.88276 348.06201,306.38549 346.36382,307.81259 C 344.66562,309.23968 342.87758,310.59839 341.01169,311.88617 C 339.1458,313.17395 337.24122,314.36378 335.30456,315.44536 C 333.36789,316.52694 331.41493,317.48831 329.42244,318.36591 C 327.42996,319.24351 325.39073,320.01544 323.35738,320.6913 C 321.32403,321.36716 319.28128,321.94336 317.22203,322.4197 C 315.16278,322.89605 313.08661,323.27208 311.0164,323.55112 C 308.94618,323.83017 306.89363,324.01753 304.82741,324.10151 C 302.76119,324.18548 300.70234,324.17969 298.65508,324.07083 C 296.60781,323.96197 294.55624,323.76656 292.54286,323.46709 C 290.5295,323.16763 288.55019,322.75059 286.58569,322.26274 C 284.62118,321.77488 282.69402,321.20098 280.79332,320.52697 C 278.89261,319.85295 277.01341,319.09997 275.19148,318.24201 C 273.36954,317.38407 271.60329,316.42002 269.87508,315.38037 C 269.65555,315.2483 269.45323,315.08356 269.23535,314.94859 C 261.63603,307.92013 254.32533,299.84454 247.57501,290.8266 C 246.11691,288.87868 244.64508,286.96648 243.24133,284.93256 C 208.30322,234.31011 204.1758,176.49282 234.03007,155.8883 z"
       id="path3181" />
  </g>
</svg>
